<?xml version="1.0" encoding="utf-8"?>
<!-- Generator: Adobe Illustrator 22.1.0, SVG Export Plug-In . SVG Version: 6.00 Build 0)  -->
<svg version="1.1" id="Calque_1" xmlns="http://www.w3.org/2000/svg" xmlns:xlink="http://www.w3.org/1999/xlink" x="0px" y="0px"
	 viewBox="0 0 17 20" style="enable-background:new 0 0 17 20;" xml:space="preserve">
<style type="text/css">
	.st0{fill-rule:evenodd;clip-rule:evenodd;fill:#FFFFFF;}
</style>
<g>
	<path class="st0" d="M11,3.4c0.7-0.8,1.1-1.9,1-3.1c-1,0-2.1,0.7-2.8,1.5c-0.6,0.7-1.1,1.9-1,3C9.2,4.8,10.3,4.2,11,3.4L11,3.4z"/>
	<path class="st0" d="M13.4,10.5c0-2.4,2-3.6,2.1-3.7C14.4,5.2,12.6,5,12,4.9c-1.5-0.2-2.9,0.9-3.7,0.9C7.5,5.8,6.4,5,5.1,5
		C3.5,5,2,5.9,1.2,7.4c-1.7,3-0.4,7.3,1.2,9.7c0.8,1.2,1.8,2.5,3,2.4c1.2,0,1.7-0.8,3.2-0.8c1.5,0,1.9,0.8,3.2,0.7
		c1.3,0,2.1-1.2,2.9-2.4c0.9-1.3,1.3-2.7,1.3-2.7C16,14.4,13.5,13.4,13.4,10.5L13.4,10.5z"/>
</g>
</svg>
